<?xml version="1.0" encoding="UTF-8" standalone="no"?>
<svg
   xmlns:dc="http://purl.org/dc/elements/1.1/"
   xmlns:cc="http://creativecommons.org/ns#"
   xmlns:rdf="http://www.w3.org/1999/02/22-rdf-syntax-ns#"
   xmlns:svg="http://www.w3.org/2000/svg"
   xmlns="http://www.w3.org/2000/svg"
   xmlns:sodipodi="http://sodipodi.sourceforge.net/DTD/sodipodi-0.dtd"
   xmlns:inkscape="http://www.inkscape.org/namespaces/inkscape"
   height="100%"
   style="fill-rule:evenodd;stroke-miterlimit:1.41420996"
   version="1.1"
   viewBox="0 0 55 55"
   width="100%"
   xml:space="preserve"
   id="svg8213"
   inkscape:version="0.48.3.1 r9886"
   sodipodi:docname="xboxcntrl.svg"><metadata
     id="metadata8230"><rdf:RDF><cc:Work
         rdf:about=""><dc:format>image/svg+xml</dc:format><dc:type
           rdf:resource="http://purl.org/dc/dcmitype/StillImage" /><dc:title></dc:title></cc:Work></rdf:RDF></metadata><defs
     id="defs8228" /><sodipodi:namedview
     pagecolor="#ffffff"
     bordercolor="#666666"
     borderopacity="1"
     objecttolerance="10"
     gridtolerance="10"
     guidetolerance="10"
     inkscape:pageopacity="0"
     inkscape:pageshadow="2"
     inkscape:window-width="1855"
     inkscape:window-height="1056"
     id="namedview8226"
     showgrid="false"
     fit-margin-top="0"
     fit-margin-left="0"
     fit-margin-right="0"
     fit-margin-bottom="0"
     inkscape:zoom="8.2636364"
     inkscape:cx="27.5"
     inkscape:cy="27.5"
     inkscape:window-x="65"
     inkscape:window-y="24"
     inkscape:window-maximized="1"
     inkscape:current-layer="svg8213" /><g
     id="g8232"
     transform="scale(0.5,0.5)"><circle
       style="fill:#25b7d3"
       r="55"
       id="circle6"
       cy="55"
       cx="55"
       sodipodi:cx="55"
       sodipodi:cy="55"
       sodipodi:rx="55"
       sodipodi:ry="55"
       d="M 110,55 C 110,85.375661 85.375661,110 55,110 24.624339,110 0,85.375661 0,55 0,24.624339 24.624339,0 55,0 c 30.375661,0 55,24.624339 55,55 z" /><g
       id="g4190"><path
         style="fill:#fff9f9;fill-rule:nonzero"
         id="path3"
         d="M 78.2675,25.1972 C 69.6902,22.6565 66.9967,27.4704 55,27.4704 c -11.9967,0 -14.6902,-4.8331 -23.2675,-2.2732 -8.5773,2.5407 -12.8564,11.5382 -16.9062,28.4253 -4.0499,16.9062 -3.3048,29.113 1.4709,31.3863 4.7758,2.2733 10.1628,-2.9419 15.3016,-9.3796 4.1644,-5.0432 6.2467,-5.368 23.4012,-5.368 17.1354,0 18.912,0.1338 23.4012,5.368 5.1388,6.4377 10.5258,11.6529 15.3016,9.3796 4.7757,-2.2733 5.5207,-14.4801 1.4709,-31.3863 C 91.1239,36.7354 86.8257,27.757 78.2675,25.1972 z M 30.5863,56.4497 c -4.1454,0 -7.5075,-3.3812 -7.5075,-7.5648 0,-4.1644 3.3621,-7.5648 7.5075,-7.5648 4.1454,0 7.5075,3.4004 7.5075,7.5648 0,4.1645 -3.3621,7.5648 -7.5075,7.5648 z M 65.2583,52.61 c -2.0249,0 -3.6869,-1.6619 -3.6869,-3.706 0,-2.044 1.662,-3.706 3.6869,-3.706 2.0441,0 3.706,1.662 3.706,3.706 -0.0191,2.0441 -1.6619,3.706 -3.706,3.706 z m 8.0615,8.0997 c -2.0249,0 -3.6869,-1.6619 -3.6869,-3.706 0,-2.0631 1.662,-3.706 3.6869,-3.706 2.044,0 3.706,1.662 3.706,3.706 0,2.0632 -1.662,3.706 -3.706,3.706 z m 0,-16.2185 c -2.0249,0 -3.6869,-1.6619 -3.6869,-3.706 0,-2.044 1.662,-3.7059 3.6869,-3.7059 2.044,0 3.706,1.6619 3.706,3.7059 0,2.0441 -1.662,3.706 -3.706,3.706 z m 8.0806,8.1188 c -2.044,0 -3.6869,-1.6619 -3.6869,-3.706 0,-2.044 1.662,-3.706 3.6869,-3.706 2.0249,0 3.6869,1.662 3.6869,3.706 0,2.0441 -1.6429,3.706 -3.6869,3.706 l 0,0 z"
         inkscape:connector-curvature="0" /><g
         id="g4175"><circle
           style="fill:#4c90c3;stroke:#0a7cde;stroke-width:0.22px"
           r="4.6939201"
           id="path4167"
           cy="49.5158"
           cx="66.525299"
           sodipodi:cx="66.525299"
           sodipodi:cy="49.5158"
           sodipodi:rx="4.6939201"
           sodipodi:ry="4.6939201"
           d="m 71.219219,49.5158 c 0,2.592381 -2.101539,4.693921 -4.69392,4.693921 -2.59238,0 -4.69392,-2.10154 -4.69392,-4.693921 0,-2.59238 2.10154,-4.69392 4.69392,-4.69392 2.592381,0 4.69392,2.10154 4.69392,4.69392 z" /><circle
           style="fill:#d8953a;stroke:#b87616;stroke-width:0.22px"
           r="4.6939201"
           id="circle4169"
           cy="49.5158"
           cx="80.822899"
           sodipodi:cx="80.822899"
           sodipodi:cy="49.5158"
           sodipodi:rx="4.6939201"
           sodipodi:ry="4.6939201"
           d="m 85.516819,49.5158 c 0,2.592381 -2.10154,4.693921 -4.69392,4.693921 -2.592381,0 -4.69392,-2.10154 -4.69392,-4.693921 0,-2.59238 2.101539,-4.69392 4.69392,-4.69392 2.59238,0 4.69392,2.10154 4.69392,4.69392 z" /><circle
           style="fill:#c2444e;stroke:#b82016;stroke-width:0.22px"
           r="4.6939201"
           id="circle4171"
           cy="41.584702"
           cx="73.5392"
           sodipodi:cx="73.5392"
           sodipodi:cy="41.584702"
           sodipodi:rx="4.6939201"
           sodipodi:ry="4.6939201"
           d="m 78.23312,41.584702 c 0,2.59238 -2.10154,4.69392 -4.69392,4.69392 -2.592381,0 -4.69392,-2.10154 -4.69392,-4.69392 0,-2.592381 2.101539,-4.693921 4.69392,-4.693921 2.59238,0 4.69392,2.10154 4.69392,4.693921 z" /><circle
           style="fill:#52c557;stroke:#16b835;stroke-width:0.22px"
           r="4.6939201"
           id="circle4173"
           cy="57.123199"
           cx="73.593201"
           sodipodi:cx="73.593201"
           sodipodi:cy="57.123199"
           sodipodi:rx="4.6939201"
           sodipodi:ry="4.6939201"
           d="m 78.287121,57.123199 c 0,2.592381 -2.10154,4.693921 -4.69392,4.693921 -2.592381,0 -4.69392,-2.10154 -4.69392,-4.693921 0,-2.59238 2.101539,-4.69392 4.69392,-4.69392 2.59238,0 4.69392,2.10154 4.69392,4.69392 z" /></g><g
         id="g4161"><circle
           style="fill:#6e7872"
           r="7.5885801"
           id="path4157"
           cy="48.848999"
           cx="30.990999"
           sodipodi:cx="30.990999"
           sodipodi:cy="48.848999"
           sodipodi:rx="7.5885801"
           sodipodi:ry="7.5885801"
           d="m 38.579579,48.848999 c 0,4.191057 -3.397523,7.58858 -7.58858,7.58858 -4.191057,0 -7.58858,-3.397523 -7.58858,-7.58858 0,-4.191057 3.397523,-7.58858 7.58858,-7.58858 4.191057,0 7.58858,3.397523 7.58858,7.58858 z" /><circle
           style="fill:#4a4b4b"
           r="6.6438098"
           id="circle4159"
           cy="48.848999"
           cx="30.990999"
           sodipodi:cx="30.990999"
           sodipodi:cy="48.848999"
           sodipodi:rx="6.6438098"
           sodipodi:ry="6.6438098"
           d="m 37.634809,48.848999 c 0,3.669275 -2.974535,6.64381 -6.64381,6.64381 -3.669275,0 -6.64381,-2.974535 -6.64381,-6.64381 0,-3.669275 2.974535,-6.64381 6.64381,-6.64381 3.669275,0 6.64381,2.974535 6.64381,6.64381 z" /></g></g></g></svg>